<svg xmlns="http://www.w3.org/2000/svg" width="95" height="95" fill="none" viewBox="0 0 95 95">
  <path fill="#BCBCBC" d="M70.768 37.381a24.15 24.15 0 0 0-45-6.95 20.58 20.58 0 0 0 1.88 41.07h42.51a17.07 17.07 0 0 0 .64-34.12h-.03Z"/>
  <path fill="url(#a)" d="M70.768 35.681a24.16 24.16 0 0 0-45-7 20.58 20.58 0 0 0 1.88 41.08h42.51a17.07 17.07 0 0 0 .64-34.12l-.03.04Z"/>
  <path fill="#BCBCBC" d="M62.108 57.301a15.31 15.31 0 0 0-28.54-4.41 13.014 13.014 0 0 0 1.19 26h26.94a10.812 10.812 0 1 0 .41-21.62v.03Z"/>
  <path fill="url(#b)" d="M62.108 56.221a15.31 15.31 0 0 0-28.54-4.41 13.014 13.014 0 0 0 1.19 26h26.94a10.812 10.812 0 1 0 .41-21.62v.03Z"/>
  <defs>
    <linearGradient id="a" x1="47.118" x2="47.118" y1="15.981" y2="69.801" gradientUnits="userSpaceOnUse">
      <stop stop-color="#E5E6E6"/>
      <stop offset="1" stop-color="#DBD9DA"/>
    </linearGradient>
    <linearGradient id="b" x1="47.118" x2="47.118" y1="43.741" y2="77.841" gradientUnits="userSpaceOnUse">
      <stop stop-color="#F1F1F1"/>
      <stop offset="1" stop-color="#F3F8FD"/>
    </linearGradient>
  </defs>
</svg>
