<svg xmlns="http://www.w3.org/2000/svg" width="54" height="54" fill="none" viewBox="0 0 54 54">
  <path fill="#D7DBE2" fill-rule="evenodd" d="M.195 27c0-.207.168-.375.375-.375h6.09a.375.375 0 0 1 0 .75H.57A.375.375 0 0 1 .195 27ZM27 46.965c.207 0 .375.168.375.375v6.09a.375.375 0 0 1-.75 0v-6.09c0-.207.168-.375.375-.375ZM46.965 27c0-.207.168-.375.375-.375h6.09a.375.375 0 0 1 0 .75h-6.09a.375.375 0 0 1-.375-.375ZM27 .195c.207 0 .375.168.375.375v6.09a.375.375 0 0 1-.75 0V.57c0-.207.168-.375.375-.375Z" clip-rule="evenodd"/>
  <path fill="#4D5463" fill-rule="evenodd" d="M7.143 29.091a.375.375 0 0 1-.334.412l-6.05.63a.375.375 0 0 1-.078-.746l6.05-.63a.375.375 0 0 1 .412.334Zm.324 2.061a.375.375 0 0 1-.29.445l-5.95 1.26a.375.375 0 0 1-.155-.734l5.95-1.26a.375.375 0 0 1 .445.29Zm.54 2.022a.375.375 0 0 1-.241.473l-5.78 1.88a.375.375 0 1 1-.232-.714l5.78-1.88a.375.375 0 0 1 .473.241Zm.755 1.943c.085.19 0 .411-.19.495l-5.56 2.48a.375.375 0 0 1-.305-.684l5.56-2.48c.19-.085.411 0 .495.19Zm.943 1.866a.375.375 0 0 1-.138.512l-5.27 3.04a.375.375 0 1 1-.374-.65l5.27-3.04a.375.375 0 0 1 .512.138Zm1.139 1.757a.375.375 0 0 1-.084.523l-4.92 3.57a.375.375 0 0 1-.44-.606l4.92-3.57a.375.375 0 0 1 .524.083Zm1.315 1.62a.375.375 0 0 1-.028.529l-4.52 4.07a.375.375 0 0 1-.502-.558l4.52-4.07a.375.375 0 0 1 .53.028Zm1.481 1.481a.375.375 0 0 1 .029.53l-4.07 4.52a.375.375 0 1 1-.558-.502l4.07-4.52a.375.375 0 0 1 .53-.028Zm1.62 1.316a.375.375 0 0 1 .084.523l-3.57 4.92a.375.375 0 1 1-.607-.44l3.57-4.92a.375.375 0 0 1 .523-.084Zm1.757 1.138c.18.104.241.333.138.512l-3.04 5.27a.375.375 0 1 1-.65-.374l3.04-5.27a.375.375 0 0 1 .512-.138Zm1.866.942a.377.377 0 0 1 .19.496l-2.48 5.56a.375.375 0 0 1-.685-.306l2.48-5.56a.375.375 0 0 1 .495-.19Zm1.943.756a.375.375 0 0 1 .24.473l-1.88 5.78a.375.375 0 1 1-.713-.232l1.88-5.78a.375.375 0 0 1 .473-.24Zm2.022.54a.375.375 0 0 1 .289.445l-1.26 5.95a.375.375 0 0 1-.734-.156l1.26-5.95a.375.375 0 0 1 .445-.289Zm2.061.324a.375.375 0 0 1 .334.412l-.63 6.05a.375.375 0 0 1-.746-.078l.63-6.05a.375.375 0 0 1 .412-.334Zm4.182 0a.375.375 0 0 1 .412.334l.63 6.05a.375.375 0 0 1-.746.078l-.63-6.05a.375.375 0 0 1 .334-.412Zm2.061-.324a.375.375 0 0 1 .445.29l1.26 5.95a.375.375 0 0 1-.734.155l-1.26-5.95a.375.375 0 0 1 .29-.445Zm2.022-.54a.375.375 0 0 1 .473.241l1.88 5.78a.375.375 0 1 1-.714.232l-1.88-5.78a.375.375 0 0 1 .241-.473Zm1.943-.756a.375.375 0 0 1 .495.19l2.48 5.56a.375.375 0 0 1-.684.306l-2.48-5.56a.373.373 0 0 1 .19-.495Zm1.866-.942a.375.375 0 0 1 .512.138l3.04 5.27a.375.375 0 1 1-.65.374l-3.04-5.27a.375.375 0 0 1 .138-.512Zm1.757-1.138a.375.375 0 0 1 .523.083l3.57 4.92a.375.375 0 0 1-.606.44l-3.57-4.92a.375.375 0 0 1 .083-.523Zm1.62-1.316a.375.375 0 0 1 .529.028l4.07 4.52a.375.375 0 0 1-.558.502l-4.07-4.52a.375.375 0 0 1 .028-.53Zm1.481-1.481a.375.375 0 0 1 .53-.029l4.52 4.07a.375.375 0 1 1-.502.558l-4.52-4.07a.375.375 0 0 1-.028-.53Zm1.316-1.62a.375.375 0 0 1 .523-.084l4.92 3.57a.375.375 0 1 1-.44.608l-4.92-3.57a.375.375 0 0 1-.084-.524Zm1.138-1.757a.375.375 0 0 1 .512-.138l5.27 3.04a.375.375 0 1 1-.374.65l-5.27-3.04a.375.375 0 0 1-.138-.512Zm.942-1.866a.375.375 0 0 1 .496-.19l5.56 2.48a.375.375 0 0 1-.306.686l-5.56-2.48a.375.375 0 0 1-.19-.496Zm.756-1.943a.375.375 0 0 1 .473-.24l5.78 1.88a.375.375 0 1 1-.232.713l-5.78-1.88a.375.375 0 0 1-.24-.473Zm.54-2.022a.375.375 0 0 1 .445-.289l5.95 1.26a.375.375 0 0 1-.156.734l-5.95-1.26a.375.375 0 0 1-.289-.445Zm.324-2.061a.375.375 0 0 1 .412-.334l6.05.63a.375.375 0 0 1-.078.746l-6.05-.63a.375.375 0 0 1-.334-.412Zm6.796-4.89a.375.375 0 0 1-.334.412l-6.05.63a.375.375 0 0 1-.078-.746l6.05-.63a.375.375 0 0 1 .412.334Zm-.436-2.769a.375.375 0 0 1-.29.445l-5.95 1.26a.375.375 0 0 1-.155-.734l5.95-1.26a.375.375 0 0 1 .445.29Zm-.73-2.718a.375.375 0 0 1-.241.473l-5.78 1.88a.375.375 0 1 1-.232-.714l5.78-1.88a.375.375 0 0 1 .473.241Zm-1.004-2.617a.375.375 0 0 1-.19.495l-5.56 2.48a.375.375 0 0 1-.306-.684l5.56-2.48c.19-.085.411 0 .495.19Zm-1.268-2.494a.375.375 0 0 1-.138.512l-5.27 3.04a.375.375 0 1 1-.374-.65l5.27-3.04a.375.375 0 0 1 .512.138Zm-1.531-2.353a.375.375 0 0 1-.084.524l-4.92 3.57a.375.375 0 1 1-.44-.607l4.92-3.57a.375.375 0 0 1 .524.083Zm-1.765-2.18a.375.375 0 0 1-.028.529l-4.52 4.07a.375.375 0 1 1-.502-.558l4.52-4.07a.375.375 0 0 1 .53.028ZM44.93 7.081a.375.375 0 0 1 .029.53l-4.07 4.52a.375.375 0 1 1-.558-.502l4.07-4.52a.375.375 0 0 1 .53-.028Zm-2.18-1.765a.375.375 0 0 1 .084.524l-3.57 4.92a.375.375 0 1 1-.608-.44l3.57-4.92a.375.375 0 0 1 .524-.084Zm-2.353-1.531c.18.104.241.333.138.512l-3.04 5.27a.375.375 0 1 1-.65-.374l3.04-5.27a.375.375 0 0 1 .512-.138Zm-2.494-1.267a.375.375 0 0 1 .19.495l-2.48 5.56a.375.375 0 0 1-.685-.306l2.48-5.56a.375.375 0 0 1 .495-.19Zm-2.617-1.005a.375.375 0 0 1 .24.473l-1.88 5.78a.375.375 0 1 1-.713-.232l1.88-5.78a.375.375 0 0 1 .473-.24Zm-2.718-.73a.375.375 0 0 1 .289.445l-1.26 5.95a.375.375 0 0 1-.734-.156l1.26-5.95a.375.375 0 0 1 .445-.289ZM29.799.347a.375.375 0 0 1 .334.412l-.63 6.05a.375.375 0 0 1-.746-.078l.63-6.05a.375.375 0 0 1 .412-.334Zm-5.598 0a.375.375 0 0 1 .412.334l.63 6.05a.375.375 0 0 1-.746.078l-.63-6.05a.375.375 0 0 1 .334-.412Zm-2.769.436a.375.375 0 0 1 .445.29l1.26 5.95a.375.375 0 0 1-.734.155l-1.26-5.95a.375.375 0 0 1 .29-.445Zm-2.718.73a.375.375 0 0 1 .473.241l1.88 5.78a.375.375 0 1 1-.714.232l-1.88-5.78a.375.375 0 0 1 .241-.473Zm-2.617 1.005c.19-.085.411 0 .495.19l2.48 5.56a.375.375 0 0 1-.684.305l-2.48-5.56a.373.373 0 0 1 .19-.495Zm-2.494 1.267a.375.375 0 0 1 .512.138l3.04 5.27a.375.375 0 1 1-.65.374l-3.04-5.27a.375.375 0 0 1 .138-.512ZM11.25 5.316a.375.375 0 0 1 .524.084l3.57 4.92a.375.375 0 1 1-.607.44l-3.57-4.92a.375.375 0 0 1 .083-.524ZM9.07 7.081a.375.375 0 0 1 .529.028l4.07 4.52a.375.375 0 1 1-.558.502l-4.07-4.52a.375.375 0 0 1 .028-.53ZM7.081 9.07a.375.375 0 0 1 .53-.029l4.52 4.07a.375.375 0 1 1-.502.558l-4.52-4.07a.375.375 0 0 1-.028-.53Zm-1.765 2.18a.375.375 0 0 1 .524-.084l4.92 3.57a.375.375 0 1 1-.44.607l-4.92-3.57a.375.375 0 0 1-.084-.523Zm-1.531 2.353a.375.375 0 0 1 .512-.138l5.27 3.04a.375.375 0 1 1-.374.65l-5.27-3.04a.375.375 0 0 1-.138-.512Zm-1.267 2.494a.375.375 0 0 1 .495-.19l5.56 2.48a.375.375 0 0 1-.306.686l-5.56-2.48a.375.375 0 0 1-.19-.496Zm-1.005 2.617a.375.375 0 0 1 .473-.24l5.78 1.88a.375.375 0 0 1-.232.713l-5.78-1.88a.375.375 0 0 1-.24-.473Zm-.73 2.718a.375.375 0 0 1 .445-.289l5.95 1.26a.375.375 0 1 1-.156.734l-5.95-1.26a.375.375 0 0 1-.289-.445Zm-.436 2.769a.375.375 0 0 1 .412-.334l6.05.63a.375.375 0 0 1-.078.746l-6.05-.63a.375.375 0 0 1-.334-.412Z" clip-rule="evenodd"/>
</svg>
