<svg xmlns="http://www.w3.org/2000/svg" width="20" height="54" fill="none" viewBox="0 0 20 54">
  <path fill="url(#a)" d="M19.46 27.13c0-4.93-3.79-9.03-8.71-9.43V4.86l1.8.77-2.42-4.62C10.1.94 10.02.9 9.95.93c-.04.01-.07.04-.08.08L7.45 5.63l1.8-.77V17.7C4.04 18.12.16 22.68.57 27.88a9.467 9.467 0 0 0 8.68 8.68v11.82a2.421 2.421 0 0 0-1.54 3.04 2.421 2.421 0 0 0 3.04 1.54 2.421 2.421 0 0 0 1.54-3.04c-.24-.73-.81-1.3-1.54-1.54V36.56c4.92-.4 8.7-4.5 8.71-9.43ZM10.9 50.66c0 .5-.4.9-.9.9s-.9-.4-.9-.9.4-.9.9-.9.9.4.9.9Z"/>
  <defs>
    <linearGradient id="a" x1="10" x2="10" y1=".92" y2="53.02" gradientUnits="userSpaceOnUse">
      <stop stop-color="#10ABFD"/>
      <stop offset="1" stop-color="#4E9CE2"/>
    </linearGradient>
  </defs>
</svg>
