<svg xmlns="http://www.w3.org/2000/svg" width="95" height="95" fill="none" viewBox="0 0 95 95">
  <path fill="url(#a)" d="M40.762 65.653a6.76 6.76 0 0 1-13.52 0c0-2.63 3.35-6.25 5.33-8.16a2.06 2.06 0 0 1 2.86 0c1.99 1.92 5.33 5.54 5.33 8.16Z"/>
  <path fill="#BCBCBC" d="M71.272 30.533a24.33 24.33 0 0 0-45.36-7 20.73 20.73 0 0 0 1.89 41.37h42.82a17.19 17.19 0 0 0 .65-34.37Z"/>
  <path fill="url(#b)" d="M71.272 28.823a24.34 24.34 0 0 0-45.36-7 20.73 20.73 0 0 0 1.89 41.38h42.82a17.19 17.19 0 0 0 .65-34.37v-.01Z"/>
  <path fill="url(#c)" d="M54.202 52.373a6.76 6.76 0 1 1-13.51 0c0-2.63 3.34-6.25 5.32-8.17a2.07 2.07 0 0 1 2.87 0c1.98 1.92 5.32 5.54 5.32 8.17Z"/>
  <path fill="url(#d)" d="M54.202 79.033a6.76 6.76 0 1 1-13.51 0c0-2.63 3.34-6.25 5.32-8.17a2.07 2.07 0 0 1 2.87 0c1.98 1.92 5.32 5.54 5.32 8.17Z"/>
  <path fill="url(#e)" d="M67.652 65.653a6.76 6.76 0 1 1-13.52 0c0-2.63 3.34-6.25 5.33-8.16a2.061 2.061 0 0 1 2.86 0c1.98 1.92 5.33 5.54 5.33 8.16Z"/>
  <defs>
    <linearGradient id="a" x1="34.002" x2="34.002" y1="56.923" y2="72.423" gradientUnits="userSpaceOnUse">
      <stop stop-color="#828DC4"/>
      <stop offset="1" stop-color="#7E8AC1"/>
    </linearGradient>
    <linearGradient id="b" x1="47.442" x2="47.442" y1="8.983" y2="63.193" gradientUnits="userSpaceOnUse">
      <stop stop-color="#E9E5E4"/>
      <stop offset="1" stop-color="#F5F2F6"/>
    </linearGradient>
    <linearGradient id="c" x1="47.442" x2="47.442" y1="43.633" y2="59.133" gradientUnits="userSpaceOnUse">
      <stop stop-color="#828DC4"/>
      <stop offset="1" stop-color="#7E8AC1"/>
    </linearGradient>
    <linearGradient id="d" x1="47.442" x2="47.442" y1="70.293" y2="85.793" gradientUnits="userSpaceOnUse">
      <stop stop-color="#828DC4"/>
      <stop offset="1" stop-color="#7E8AC1"/>
    </linearGradient>
    <linearGradient id="e" x1="60.892" x2="60.892" y1="56.923" y2="72.423" gradientUnits="userSpaceOnUse">
      <stop stop-color="#828DC4"/>
      <stop offset="1" stop-color="#7E8AC1"/>
    </linearGradient>
  </defs>
</svg>
