<svg xmlns="http://www.w3.org/2000/svg" width="95" height="95" fill="none" viewBox="0 0 95 95">
  <path fill="#C4C4C4" d="m43.235 66.825-9.56-9.56-9.56 9.56 9.56 9.56 9.56-9.56Zm27.133.004-9.56-9.56-9.56 9.56 9.56 9.56 9.56-9.56Z"/>
  <path fill="url(#a)" d="m43.238 65.581-9.56-9.56-9.56 9.56 9.56 9.56 9.56-9.56Z"/>
  <path fill="#BCBCBC" d="M71.282 30.547a24.34 24.34 0 0 0-45.37-7 20.73 20.73 0 0 0 1.89 41.38h42.83a17.19 17.19 0 0 0 .65-34.37v-.01Z"/>
  <path fill="url(#b)" d="M71.282 28.837a24.34 24.34 0 0 0-45.37-7 20.73 20.73 0 0 0 1.89 41.38h42.83a17.19 17.19 0 0 0 .65-34.37v-.01Z"/>
  <path fill="url(#c)" d="m70.372 65.575-9.56-9.56-9.56 9.56 9.56 9.56 9.56-9.56Z"/>
  <path fill="url(#d)" d="M54.212 52.367a6.76 6.76 0 0 1-13.52 0c0-2.63 3.34-6.25 5.33-8.17a2.06 2.06 0 0 1 2.86 0c1.98 1.94 5.33 5.56 5.33 8.17Z"/>
  <path fill="url(#e)" d="M54.212 79.037a6.761 6.761 0 0 1-13.52 0c0-2.62 3.34-6.24 5.33-8.16a2.06 2.06 0 0 1 2.86 0c1.98 1.92 5.33 5.54 5.33 8.16Z"/>
  <defs>
    <linearGradient id="a" x1="38.451" x2="28.891" y1="60.808" y2="70.368" gradientUnits="userSpaceOnUse">
      <stop stop-color="#FFFEFE"/>
      <stop offset="1" stop-color="#FAFFFF"/>
    </linearGradient>
    <linearGradient id="b" x1="47.452" x2="47.452" y1="8.997" y2="63.207" gradientUnits="userSpaceOnUse">
      <stop stop-color="#E9E5E4"/>
      <stop offset="1" stop-color="#F5F2F6"/>
    </linearGradient>
    <linearGradient id="c" x1="60.812" x2="60.812" y1="56.015" y2="75.135" gradientUnits="userSpaceOnUse">
      <stop stop-color="#FFFEFE"/>
      <stop offset="1" stop-color="#FAFFFF"/>
    </linearGradient>
    <linearGradient id="d" x1="47.452" x2="47.452" y1="43.637" y2="59.137" gradientUnits="userSpaceOnUse">
      <stop stop-color="#828DC4"/>
      <stop offset="1" stop-color="#7E8AC1"/>
    </linearGradient>
    <linearGradient id="e" x1="47.452" x2="47.452" y1="70.297" y2="85.797" gradientUnits="userSpaceOnUse">
      <stop stop-color="#828DC4"/>
      <stop offset="1" stop-color="#7E8AC1"/>
    </linearGradient>
  </defs>
</svg>
