<svg xmlns="http://www.w3.org/2000/svg" width="95" height="95" fill="none" viewBox="0 0 95 95">
  <path fill="url(#a)" d="M40.728 91.111v-17.9h-10.9v-22.95h33.85l-13.62 14.4h13.62l-22.95 26.45Z"/>
  <path fill="#BCBCBC" d="M70.768 25.381a24.16 24.16 0 0 0-45-7 20.58 20.58 0 0 0 1.88 41.08h42.51a17.07 17.07 0 0 0 .65-34.12l-.04.04Z"/>
  <path fill="url(#b)" d="M70.768 23.681a24.16 24.16 0 0 0-45-7 20.58 20.58 0 0 0 1.88 41.08h42.51a17.07 17.07 0 0 0 .65-34.12l-.04.04Z"/>
  <defs>
    <linearGradient id="a" x1="46.758" x2="46.758" y1="50.261" y2="91.111" gradientUnits="userSpaceOnUse">
      <stop stop-color="#F39E1B"/>
      <stop offset="1" stop-color="#FF8D16"/>
    </linearGradient>
    <linearGradient id="b" x1="47.108" x2="47.108" y1="3.981" y2="57.801" gradientUnits="userSpaceOnUse">
      <stop stop-color="#C6C6C6"/>
      <stop offset="1" stop-color="#E0E0E0"/>
    </linearGradient>
  </defs>
</svg>
