<svg xmlns="http://www.w3.org/2000/svg" width="38" height="38" fill="none" viewBox="0 0 38 38">
  <path fill="#717171" d="M1.78 21.69.41 16.3h.74l.64 2.73c.16.67.3 1.34.4 1.86h.02c.09-.54.26-1.17.44-1.87l.72-2.72h.73l.66 2.73c.15.64.3 1.28.38 1.85h.02c.11-.59.26-1.19.43-1.86l.71-2.72h.71l-1.53 5.39h-.73l-.68-2.81c-.17-.69-.28-1.22-.35-1.76H3.7c-.1.54-.22 1.06-.42 1.76l-.77 2.81h-.73Zm35.56-2.52h-2.09v1.94h2.33v.58h-3.03V16.3h2.91v.58h-2.21v1.7h2.09v.59ZM16.98 5.81V.42h.76l1.73 2.73c.4.63.71 1.2.97 1.75h.02c-.06-.73-.08-1.38-.08-2.22V.43h.66v5.39h-.7l-1.71-2.73c-.38-.6-.74-1.22-1.01-1.8h-.02c.04.69.06 1.34.06 2.23v2.3H17l-.02-.01Zm.56 30.84c.31.19.77.35 1.25.35.71 0 1.13-.38 1.13-.92 0-.5-.29-.79-1.02-1.07-.88-.31-1.42-.77-1.42-1.53 0-.84.7-1.46 1.74-1.46.55 0 .95.13 1.19.26l-.19.57c-.18-.1-.54-.26-1.02-.26-.74 0-1.02.44-1.02.81 0 .5.33.75 1.07 1.04.91.35 1.38.79 1.38 1.58 0 .83-.62 1.55-1.89 1.55-.52 0-1.09-.15-1.38-.34l.18-.58Z"/>
</svg>
