<svg xmlns="http://www.w3.org/2000/svg" width="95" height="95" fill="none" viewBox="0 0 95 95">
  <path fill="url(#a)" d="M38.22 61.8a5.65 5.65 0 1 0 0-11.3 5.65 5.65 0 0 0 0 11.3Z"/>
  <path fill="url(#b)" d="M21.33 77.24a4.31 4.31 0 1 0 0-8.62 4.31 4.31 0 0 0 0 8.62Z"/>
  <path fill="url(#c)" d="M21.33 60.46a4.31 4.31 0 1 0 0-8.62 4.31 4.31 0 0 0 0 8.62Z"/>
  <path fill="url(#d)" d="M21.33 43.69a4.31 4.31 0 1 0 0-8.62 4.31 4.31 0 0 0 0 8.62Z"/>
  <path fill="url(#e)" d="M9 40.85a2 2 0 1 0 0-4 2 2 0 0 0 0 4Z"/>
  <path fill="url(#f)" d="M9 58.15a2 2 0 1 0 0-4 2 2 0 0 0 0 4Z"/>
  <path fill="url(#g)" d="M38.22 87.48a2 2 0 1 0 0-4 2 2 0 0 0 0 4Z"/>
  <path fill="url(#h)" d="M38.22 12a2 2 0 1 0 0-4 2 2 0 0 0 0 4Z"/>
  <path fill="url(#i)" d="M55.11 87.48a2 2 0 1 0 0-4 2 2 0 0 0 0 4Z"/>
  <path fill="url(#j)" d="M55.11 12a2 2 0 1 0 0-4 2 2 0 0 0 0 4Z"/>
  <path fill="url(#k)" d="M84.85 40.85a2 2 0 1 0 0-4 2 2 0 0 0 0 4Z"/>
  <path fill="url(#l)" d="M84.85 58.15a2 2 0 1 0 0-4 2 2 0 0 0 0 4Z"/>
  <path fill="url(#m)" d="M21.33 26.91a4.31 4.31 0 1 0 0-8.62 4.31 4.31 0 0 0 0 8.62Z"/>
  <path fill="url(#n)" d="M38.22 77.24a4.31 4.31 0 1 0 0-8.62 4.31 4.31 0 0 0 0 8.62Z"/>
  <path fill="url(#o)" d="M38.22 26.91a4.31 4.31 0 1 0 0-8.62 4.31 4.31 0 0 0 0 8.62Z"/>
  <path fill="url(#p)" d="M55.11 77.24a4.31 4.31 0 1 0 0-8.62 4.31 4.31 0 0 0 0 8.62Z"/>
  <path fill="url(#q)" d="M55.11 26.91a4.31 4.31 0 1 0 0-8.62 4.31 4.31 0 0 0 0 8.62Z"/>
  <path fill="url(#r)" d="M72.01 77.24a4.31 4.31 0 1 0 0-8.62 4.31 4.31 0 0 0 0 8.62Z"/>
  <path fill="url(#s)" d="M72.01 60.46a4.31 4.31 0 1 0 0-8.62 4.31 4.31 0 0 0 0 8.62Z"/>
  <path fill="url(#t)" d="M72.01 43.16a4.31 4.31 0 1 0 0-8.62 4.31 4.31 0 0 0 0 8.62Z"/>
  <path fill="url(#u)" d="M72.01 26.91a4.31 4.31 0 1 0 0-8.62 4.31 4.31 0 0 0 0 8.62Z"/>
  <path fill="url(#v)" d="M54.87 61.8a5.65 5.65 0 1 0 0-11.3 5.65 5.65 0 0 0 0 11.3Z"/>
  <path fill="url(#w)" d="M38.22 44.5a5.65 5.65 0 1 0 0-11.3 5.65 5.65 0 0 0 0 11.3Z"/>
  <path fill="url(#x)" d="M54.87 44.5a5.65 5.65 0 1 0 0-11.3 5.65 5.65 0 0 0 0 11.3Z"/>
  <defs>
    <linearGradient id="a" x1="38.22" x2="38.22" y1="50.5" y2="61.8" gradientUnits="userSpaceOnUse">
      <stop stop-color="#BBB9B9"/>
      <stop offset="1" stop-color="#777"/>
    </linearGradient>
    <linearGradient id="b" x1="21.33" x2="21.33" y1="68.62" y2="77.24" gradientUnits="userSpaceOnUse">
      <stop stop-color="#BBB9B9"/>
      <stop offset="1" stop-color="#777"/>
    </linearGradient>
    <linearGradient id="c" x1="21.33" x2="21.33" y1="51.84" y2="60.46" gradientUnits="userSpaceOnUse">
      <stop stop-color="#BBB9B9"/>
      <stop offset="1" stop-color="#777"/>
    </linearGradient>
    <linearGradient id="d" x1="21.33" x2="21.33" y1="35.07" y2="43.69" gradientUnits="userSpaceOnUse">
      <stop stop-color="#BBB9B9"/>
      <stop offset="1" stop-color="#777"/>
    </linearGradient>
    <linearGradient id="e" x1="9" x2="9" y1="36.85" y2="40.85" gradientUnits="userSpaceOnUse">
      <stop stop-color="#BBB9B9"/>
      <stop offset="1" stop-color="#777"/>
    </linearGradient>
    <linearGradient id="f" x1="9" x2="9" y1="54.15" y2="58.15" gradientUnits="userSpaceOnUse">
      <stop stop-color="#BBB9B9"/>
      <stop offset="1" stop-color="#777"/>
    </linearGradient>
    <linearGradient id="g" x1="38.22" x2="38.22" y1="83.48" y2="87.48" gradientUnits="userSpaceOnUse">
      <stop stop-color="#BBB9B9"/>
      <stop offset="1" stop-color="#777"/>
    </linearGradient>
    <linearGradient id="h" x1="38.22" x2="38.22" y1="8" y2="12" gradientUnits="userSpaceOnUse">
      <stop stop-color="#BBB9B9"/>
      <stop offset="1" stop-color="#777"/>
    </linearGradient>
    <linearGradient id="i" x1="55.11" x2="55.11" y1="83.48" y2="87.48" gradientUnits="userSpaceOnUse">
      <stop stop-color="#BBB9B9"/>
      <stop offset="1" stop-color="#777"/>
    </linearGradient>
    <linearGradient id="j" x1="55.11" x2="55.11" y1="8" y2="12" gradientUnits="userSpaceOnUse">
      <stop stop-color="#BBB9B9"/>
      <stop offset="1" stop-color="#777"/>
    </linearGradient>
    <linearGradient id="k" x1="84.85" x2="84.85" y1="36.85" y2="40.85" gradientUnits="userSpaceOnUse">
      <stop stop-color="#BBB9B9"/>
      <stop offset="1" stop-color="#777"/>
    </linearGradient>
    <linearGradient id="l" x1="84.85" x2="84.85" y1="54.15" y2="58.15" gradientUnits="userSpaceOnUse">
      <stop stop-color="#BBB9B9"/>
      <stop offset="1" stop-color="#777"/>
    </linearGradient>
    <linearGradient id="m" x1="21.33" x2="21.33" y1="18.29" y2="26.91" gradientUnits="userSpaceOnUse">
      <stop stop-color="#BBB9B9"/>
      <stop offset="1" stop-color="#777"/>
    </linearGradient>
    <linearGradient id="n" x1="38.22" x2="38.22" y1="68.62" y2="77.24" gradientUnits="userSpaceOnUse">
      <stop stop-color="#BBB9B9"/>
      <stop offset="1" stop-color="#777"/>
    </linearGradient>
    <linearGradient id="o" x1="38.22" x2="38.22" y1="18.29" y2="26.91" gradientUnits="userSpaceOnUse">
      <stop stop-color="#BBB9B9"/>
      <stop offset="1" stop-color="#777"/>
    </linearGradient>
    <linearGradient id="p" x1="55.11" x2="55.11" y1="68.62" y2="77.24" gradientUnits="userSpaceOnUse">
      <stop stop-color="#BBB9B9"/>
      <stop offset="1" stop-color="#777"/>
    </linearGradient>
    <linearGradient id="q" x1="55.11" x2="55.11" y1="18.29" y2="26.91" gradientUnits="userSpaceOnUse">
      <stop stop-color="#BBB9B9"/>
      <stop offset="1" stop-color="#777"/>
    </linearGradient>
    <linearGradient id="r" x1="72.01" x2="72.01" y1="68.62" y2="77.24" gradientUnits="userSpaceOnUse">
      <stop stop-color="#BBB9B9"/>
      <stop offset="1" stop-color="#777"/>
    </linearGradient>
    <linearGradient id="s" x1="72.01" x2="72.01" y1="51.84" y2="60.46" gradientUnits="userSpaceOnUse">
      <stop stop-color="#BBB9B9"/>
      <stop offset="1" stop-color="#777"/>
    </linearGradient>
    <linearGradient id="t" x1="72.01" x2="72.01" y1="34.54" y2="43.16" gradientUnits="userSpaceOnUse">
      <stop stop-color="#BBB9B9"/>
      <stop offset="1" stop-color="#777"/>
    </linearGradient>
    <linearGradient id="u" x1="72.01" x2="72.01" y1="18.29" y2="26.91" gradientUnits="userSpaceOnUse">
      <stop stop-color="#BBB9B9"/>
      <stop offset="1" stop-color="#777"/>
    </linearGradient>
    <linearGradient id="v" x1="54.87" x2="54.87" y1="50.5" y2="61.8" gradientUnits="userSpaceOnUse">
      <stop stop-color="#BBB9B9"/>
      <stop offset="1" stop-color="#777"/>
    </linearGradient>
    <linearGradient id="w" x1="38.22" x2="38.22" y1="33.2" y2="44.5" gradientUnits="userSpaceOnUse">
      <stop stop-color="#BBB9B9"/>
      <stop offset="1" stop-color="#777"/>
    </linearGradient>
    <linearGradient id="x" x1="54.87" x2="54.87" y1="33.2" y2="44.5" gradientUnits="userSpaceOnUse">
      <stop stop-color="#BBB9B9"/>
      <stop offset="1" stop-color="#777"/>
    </linearGradient>
  </defs>
</svg>
