<svg xmlns="http://www.w3.org/2000/svg" width="95" height="95" fill="none" viewBox="0 0 95 95">
  <path fill="url(#a)" d="m75.988 52 11.1-11.1-11.1-11.1V14.1h-15.7L49.188 3l-11.1 11.1h-15.69v15.7l-11.1 11.1 11.1 11.1v15.69h15.69l11.1 11.1 11.1-11.1h15.7V52Z"/>
  <path fill="#C6710C" d="M49.188 62.32c11.2 0 20.28-9.08 20.28-20.28 0-11.2-9.08-20.28-20.28-20.28-11.2 0-20.28 9.08-20.28 20.28 0 11.2 9.08 20.28 20.28 20.28Z"/>
  <path fill="url(#b)" d="M49.188 61.18c11.2 0 20.28-9.08 20.28-20.28 0-11.2-9.08-20.28-20.28-20.28-11.2 0-20.28 9.08-20.28 20.28 0 11.2 9.08 20.28 20.28 20.28Z"/>
  <path fill="#D9D9D9" d="M70.658 57a24.16 24.16 0 0 0-45-6.95 20.58 20.58 0 0 0 1.88 41.07h42.52a17.07 17.07 0 0 0 .64-34.12h-.04Z"/>
  <path fill="url(#c)" d="M70.658 55.25a24.16 24.16 0 0 0-45-6.95 20.58 20.58 0 0 0 1.88 41.07h42.52a17.07 17.07 0 0 0 .64-34.12h-.04Z"/>
  <defs>
    <linearGradient id="a" x1="49.188" x2="49.188" y1="3" y2="78.79" gradientUnits="userSpaceOnUse">
      <stop stop-color="#F39E1B"/>
      <stop offset="1" stop-color="#FF8D16"/>
    </linearGradient>
    <linearGradient id="b" x1="49.188" x2="49.188" y1="20.62" y2="61.18" gradientUnits="userSpaceOnUse">
      <stop stop-color="#FCCA25"/>
      <stop offset="1" stop-color="#FFC21E"/>
    </linearGradient>
    <linearGradient id="c" x1="46.998" x2="46.998" y1="35.56" y2="89.37" gradientUnits="userSpaceOnUse">
      <stop stop-color="#F1F1F1"/>
      <stop offset="1" stop-color="#F3F8FD"/>
    </linearGradient>
  </defs>
</svg>
