<svg xmlns="http://www.w3.org/2000/svg" width="95" height="95" fill="none" viewBox="0 0 95 95">
  <path fill="url(#a)" d="M40.762 65.667a6.76 6.76 0 1 1-13.52 0c0-2.63 3.35-6.25 5.33-8.16a2.07 2.07 0 0 1 2.87 0c2.03 1.92 5.32 5.54 5.32 8.16Z"/>
  <path fill="#D9D9D9" d="M71.282 30.547a24.34 24.34 0 0 0-45.37-7 20.73 20.73 0 0 0 1.89 41.37h42.83a17.19 17.19 0 0 0 .65-34.37Z"/>
  <path fill="url(#b)" stroke="#D9D9D9" d="m25.956 22.335.269-.024.128-.238a23.84 23.84 0 0 1 44.429 6.81v.447l.483.017a16.69 16.69 0 0 1-.631 33.37H27.8a20.23 20.23 0 0 1-1.844-40.382Z"/>
  <path fill="url(#c)" d="M54.212 52.387a6.76 6.76 0 0 1-13.52 0c0-2.63 3.34-6.25 5.33-8.17a2.06 2.06 0 0 1 2.86 0c1.98 1.92 5.33 5.54 5.33 8.17Z"/>
  <path fill="url(#d)" d="M54.212 79.047a6.76 6.76 0 0 1-13.52 0c0-2.63 3.34-6.25 5.33-8.17a2.06 2.06 0 0 1 2.86 0c1.98 1.92 5.33 5.54 5.33 8.17Z"/>
  <path fill="url(#e)" d="M67.652 65.667a6.76 6.76 0 1 1-13.52 0c0-2.63 3.34-6.25 5.33-8.16a2.06 2.06 0 0 1 2.86 0c1.98 1.92 5.33 5.54 5.33 8.16Z"/>
  <defs>
    <linearGradient id="a" x1="34.002" x2="34.002" y1="56.937" y2="72.437" gradientUnits="userSpaceOnUse">
      <stop stop-color="#828DC4"/>
      <stop offset="1" stop-color="#7E8AC1"/>
    </linearGradient>
    <linearGradient id="b" x1="47.452" x2="47.452" y1="8.997" y2="63.207" gradientUnits="userSpaceOnUse">
      <stop stop-color="#F1F1F1"/>
      <stop offset="1" stop-color="#F3F8FD"/>
    </linearGradient>
    <linearGradient id="c" x1="47.452" x2="47.452" y1="43.647" y2="59.147" gradientUnits="userSpaceOnUse">
      <stop stop-color="#828DC4"/>
      <stop offset="1" stop-color="#7E8AC1"/>
    </linearGradient>
    <linearGradient id="d" x1="47.452" x2="47.452" y1="70.307" y2="85.807" gradientUnits="userSpaceOnUse">
      <stop stop-color="#828DC4"/>
      <stop offset="1" stop-color="#7E8AC1"/>
    </linearGradient>
    <linearGradient id="e" x1="60.892" x2="60.892" y1="56.937" y2="72.437" gradientUnits="userSpaceOnUse">
      <stop stop-color="#828DC4"/>
      <stop offset="1" stop-color="#7E8AC1"/>
    </linearGradient>
  </defs>
</svg>
