<svg xmlns="http://www.w3.org/2000/svg" width="95" height="95" fill="none" viewBox="0 0 95 95">
  <path fill="url(#a)" d="m43.237 64.592-9.56-9.56-9.56 9.56 9.56 9.56 9.56-9.56Z"/>
  <path fill="#D9D9D9" d="M71.282 29.547a24.34 24.34 0 0 0-45.37-7 20.73 20.73 0 0 0 1.89 41.37h42.83a17.19 17.19 0 0 0 .65-34.37Z"/>
  <path fill="url(#b)" stroke="#D9D9D9" d="m25.956 21.335.269-.024.128-.238a23.84 23.84 0 0 1 44.429 6.81v.447l.483.017a16.69 16.69 0 0 1-.631 33.37H27.8a20.23 20.23 0 0 1-1.844-40.382Z"/>
  <path fill="url(#c)" d="m57.008 51.225-9.56-9.56-9.56 9.56 9.56 9.56 9.56-9.56Z"/>
  <path fill="url(#d)" d="m56.597 77.946-9.56-9.56-9.56 9.56 9.56 9.56 9.56-9.56Z"/>
  <path fill="url(#e)" d="m70.36 64.586-9.56-9.56-9.56 9.56 9.56 9.56 9.56-9.56Z"/>
  <defs>
    <linearGradient id="a" x1="38.457" x2="28.904" y1="59.812" y2="69.365" gradientUnits="userSpaceOnUse">
      <stop stop-color="#FFFEFE"/>
      <stop offset="1" stop-color="#FAFFFF"/>
    </linearGradient>
    <linearGradient id="b" x1="47.452" x2="47.452" y1="7.997" y2="62.207" gradientUnits="userSpaceOnUse">
      <stop stop-color="#F1F1F1"/>
      <stop offset="1" stop-color="#F3F8FD"/>
    </linearGradient>
    <linearGradient id="c" x1="52.221" x2="42.66" y1="46.438" y2="55.998" gradientUnits="userSpaceOnUse">
      <stop stop-color="#FFFEFE"/>
      <stop offset="1" stop-color="#FAFFFF"/>
    </linearGradient>
    <linearGradient id="d" x1="51.817" x2="42.264" y1="73.166" y2="82.719" gradientUnits="userSpaceOnUse">
      <stop stop-color="#FFFEFE"/>
      <stop offset="1" stop-color="#FAFFFF"/>
    </linearGradient>
    <linearGradient id="e" x1="60.8" x2="60.8" y1="55.026" y2="74.146" gradientUnits="userSpaceOnUse">
      <stop stop-color="#FFFEFE"/>
      <stop offset="1" stop-color="#FAFFFF"/>
    </linearGradient>
  </defs>
</svg>
